<svg xmlns="http://www.w3.org/2000/svg" width="24" height="24" viewBox="0 0 24 24" fill="none">
  <g clip-path="url(#clip0_270_723)">
    <path d="M11.8984 0.0067749C5.82042 0.0067749 6.19992 2.65289 6.19992 2.65289L6.20667 5.39435H12.0068V6.21741H3.90295C3.90295 6.21741 0.0136414 5.77459 0.0136414 11.9313C0.0136414 18.0882 3.40833 17.8698 3.40833 17.8698H5.43427V15.0128C5.43427 15.0128 5.32505 11.6048 8.77477 11.6048H14.5275C14.5275 11.6048 17.7595 11.6572 17.7595 8.46889V3.19718C17.7595 3.19718 18.2504 0.0067749 11.8984 0.0067749ZM8.70024 1.85035C8.8373 1.85023 8.97304 1.87724 9.09969 1.92984C9.22634 1.98244 9.34142 2.05959 9.43833 2.15689C9.53525 2.25419 9.6121 2.36971 9.6645 2.49686C9.71689 2.62401 9.7438 2.76028 9.74367 2.89788C9.7438 3.03548 9.71689 3.17175 9.6645 3.2989C9.6121 3.42605 9.53525 3.54158 9.43833 3.63887C9.34142 3.73617 9.22634 3.81332 9.09969 3.86592C8.97304 3.91852 8.8373 3.94553 8.70024 3.94541C8.56318 3.94553 8.42743 3.91852 8.30078 3.86592C8.17413 3.81332 8.05906 3.73617 7.96214 3.63887C7.86522 3.54158 7.78837 3.42605 7.73597 3.2989C7.68358 3.17175 7.65667 3.03548 7.6568 2.89788C7.65667 2.76028 7.68358 2.62401 7.73597 2.49686C7.78837 2.36971 7.86522 2.25419 7.96214 2.15689C8.05906 2.05959 8.17413 1.98244 8.30078 1.92984C8.42743 1.87724 8.56318 1.85023 8.70024 1.85035Z" fill="url(#paint0_linear_270_723)"/>
    <path d="M12.071 23.9177C18.149 23.9177 17.7695 21.2716 17.7695 21.2716L17.7627 18.5303H11.9625V17.7072H20.0663C20.0663 17.7072 23.9557 18.15 23.9557 11.9931C23.9557 5.83633 20.561 6.05468 20.561 6.05468H18.535V8.91162C18.535 8.91162 18.6442 12.3196 15.1945 12.3196H9.44184C9.44184 12.3196 6.20981 12.2672 6.20981 15.4556V20.7274C6.20981 20.7274 5.71903 23.9177 12.0709 23.9177M15.2691 22.0744C15.132 22.0745 14.9963 22.0475 14.8696 21.9949C14.743 21.9423 14.6279 21.8651 14.531 21.7678C14.434 21.6705 14.3572 21.555 14.3048 21.4278C14.2524 21.3007 14.2255 21.1644 14.2256 21.0268C14.2255 20.8892 14.2524 20.7529 14.3048 20.6258C14.3572 20.4986 14.434 20.3831 14.5309 20.2858C14.6279 20.1885 14.7429 20.1113 14.8696 20.0587C14.9962 20.0061 15.132 19.9791 15.2691 19.9792C15.4061 19.9791 15.5419 20.0061 15.6685 20.0587C15.7952 20.1113 15.9102 20.1884 16.0072 20.2857C16.1041 20.383 16.1809 20.4986 16.2333 20.6257C16.2857 20.7529 16.3126 20.8891 16.3125 21.0267C16.3126 21.1643 16.2857 21.3006 16.2333 21.4277C16.1809 21.5549 16.1041 21.6704 16.0072 21.7677C15.9102 21.865 15.7952 21.9422 15.6685 21.9948C15.5419 22.0474 15.4061 22.0745 15.2691 22.0744Z" fill="url(#paint1_linear_270_723)"/>
  </g>
  <defs>
    <linearGradient id="paint0_linear_270_723" x1="230.096" y1="215.072" x2="1421.19" y2="1389.68" gradientUnits="userSpaceOnUse">
      <stop stop-color="#387EB8"/>
      <stop offset="1" stop-color="#366994"/>
    </linearGradient>
    <linearGradient id="paint1_linear_270_723" x1="345.812" y1="373.677" x2="1624.68" y2="1577.91" gradientUnits="userSpaceOnUse">
      <stop stop-color="#FFE052"/>
      <stop offset="1" stop-color="#FFC331"/>
    </linearGradient>
    <clipPath id="clip0_270_723">
      <rect width="24" height="24" fill="white"/>
    </clipPath>
  </defs>
</svg>